<svg id="Layer_1" data-name="Layer 1" xmlns="http://www.w3.org/2000/svg" viewBox="0 0 5048.69 3887.64"><defs><style>.cls-1{fill:#bbf7d0;}.cls-2{opacity:0.2;}.cls-3{fill:#090935;}.cls-4{fill:#bbdaea;}.cls-5{fill:#1f2460;}.cls-6{fill:#a7f3d0;}.cls-7{fill:#fcf3de;}.cls-8{fill:#10b981;}.cls-9{fill:#fac747;}.cls-10{fill:#fff;}.cls-11{fill:#d1d5db;}.cls-12{fill:#3c4549;}.cls-13{fill:#059669;}.cls-14{fill:#efded5;}.cls-15{fill:#d19a20;}.cls-16{fill:#d53032;}.cls-17{fill:#aa1d25;}.cls-18{fill:#fc9;}.cls-19{fill:#dda572;}.cls-20{fill:#332c26;}.cls-21{fill:#060a14;}.cls-22{fill:#f8f8ff;}.cls-23{fill:#1b284c;}.cls-24{fill:#d5d6da;}.cls-25{fill:#101a37;}.cls-26{fill:#9494d6;}.cls-27{fill:#ecfdf5;}.cls-28{fill:#111827;}</style></defs><path class="cls-1" d="M4996.94,3508.89c-67.78,181.44-315.19,271.27-643.73,311.69-609,74.92-1496.68-19.87-2035.61-15.38-859.63,7.15-1384.77-61.35-1710.19-162.32C81.47,3479.75,77.07,3231.84,25,3081.56c-84.22-243.29,31.19-826.57,542.73-929.5s458.51-910.78,1020-1322.26,1150.93-103.18,1573.41,407.08,725.36,151,1202.58,425.48,355.58,602,386.78,998.12S5190.32,2991.11,4996.94,3508.89Z"/><g class="cls-2"><path class="cls-3" d="M1718.43,50.46,2036,1250.86c24.42,92.29-31.83,186.61-124.64,209L898.68,1704a137,137,0,0,1-163-92.76L463.68,731c-47.47-153.62,39.4-316.49,193.43-362.63Z"/></g><path class="cls-4" d="M1851.51,108.11,2078,1241.2c14,70-31.83,138.67-101.79,152.65L914.73,1606.06c-70,14-138.66-31.83-152.65-101.78L535.56,371.18c-14-69.95,31.83-138.66,101.79-152.65L1698.86,6.32C1768.82-7.66,1837.53,38.15,1851.51,108.11Z"/><path class="cls-5" d="M889.26,1612.39A134.16,134.16,0,0,1,758.37,1505L531.85,371.93A133.93,133.93,0,0,1,636.61,214.82L1698.12,2.61a133.93,133.93,0,0,1,157.11,104.76l226.52,1133.09A133.93,133.93,0,0,1,1977,1397.57L915.48,1609.78A134.06,134.06,0,0,1,889.26,1612.39ZM1724.32,7.58A125.49,125.49,0,0,0,1699.61,10L638.09,222.25a126.09,126.09,0,0,0-98.81,148.19L765.8,1503.54A126.34,126.34,0,0,0,914,1602.35l1061.52-212.21A126.35,126.35,0,0,0,2074.32,1242L1847.8,108.85A126.56,126.56,0,0,0,1724.32,7.58Z"/><polygon class="cls-6" points="1030.12 1348.38 1514.88 787.62 1985.13 1092.65 2008.08 1207.44 1040.61 1400.85 1030.12 1348.38"/><path class="cls-7" d="M1911,732.1c-6.17,58.18-84.46,6.35-186.94,37.37-68.8,20.83-247.67,28.79-393.55,78.68-134.33,45.94-247.93,56.38-188.24,13.75s142.34-89.84,244-110.17,150.86-13.1,242.69-48.51,177.1-103.62,191.53-65.58S1916.94,676.35,1911,732.1Z"/><path class="cls-7" d="M674.36,655.15c28.06,51.33,79.89-34.75,186.93-37.38,139.12-3.41,278-61.42,393.55-78.67,140.42-21,247.34-32.85,179.07-59.67-81.54-32-193.56-71.21-267.61-7.9-78.8,67.38-144.3,45.91-242.69,48.52s-203.32-27.56-202,13.1S647.47,606,674.36,655.15Z"/><polygon class="cls-8" points="774.33 1263.09 1063.61 816.44 1578.47 1191 1985.35 1093.75 2008.08 1207.44 811.04 1446.74 774.33 1263.09"/><circle class="cls-9" cx="1132.95" cy="655.73" r="117.06" transform="translate(-131.84 993.17) rotate(-45)"/><path class="cls-7" d="M1535.26,512.61c12,22,38.75,3.94,80-16s107.84-37.61,168.49-33.68,107.27-18.52,76.66-25.54-71-12.09-114.57-3.38-61.78,19.65-103.9,20.77-87-11.8-86.49,5.61S1523.75,491.55,1535.26,512.61Z"/><path class="cls-10" d="M1829.64,136.14,1842.21,199,579.1,451.52l-12.56-62.87c-13.43-67.14,30.55-133.09,97.69-146.52L1683.12,38.45C1750.26,25,1816.22,69,1829.64,136.14Z"/><path class="cls-10" d="M2036.61,1171.44l10.45,52.29c13.43,67.15-30.55,133.1-97.7,146.52L930.48,1573.94c-67.14,13.42-133.1-30.55-146.52-97.7L773.51,1424Z"/><circle class="cls-11" cx="749.81" cy="356.93" r="118.57" transform="translate(-32.78 634.74) rotate(-45)"/><path class="cls-10" d="M833.62,401.22a74.65,74.65,0,0,0-146.41,29.27Z"/><circle class="cls-10" cx="738.47" cy="306.05" r="34.22" transform="translate(-0.12 611.82) rotate(-45)"/><rect class="cls-12" x="894.62" y="194.22" width="463.5" height="51.2" transform="matrix(0.98, -0.2, 0.2, 0.98, -21.24, 225.07)"/><rect class="cls-12" x="823.88" y="1353.65" width="908.13" height="32.34" transform="translate(-243.74 277.1) rotate(-11.31)"/><rect class="cls-12" x="838.67" y="1427.64" width="908.13" height="32.34" transform="matrix(0.98, -0.2, 0.2, 0.98, -257.95, 281.44)"/><path class="cls-8" d="M4411.07,3805.2s-19.81,5.8-57.86,15.38c-609,74.92-1496.68-19.87-2035.61-15.38-859.63,7.15-1384.77-61.35-1710.19-162.32C1046,3553,3323.49,3130.41,4411.07,3805.2Z"/><g class="cls-2"><path class="cls-3" d="M625.08,1175.41h-.32c-9.18-.22-18.56-.38-27.88-.47a12.48,12.48,0,0,1,.11-25h.12c9.45.09,19,.25,28.27.48a12.48,12.48,0,0,1-.3,25Z"/><path class="cls-3" d="M1488.25,1506.36a12.46,12.46,0,0,1-7.38-2.42l-2.67-2c-10.26-7.56-20.57-15.14-30.93-22.83L1433.41,1469a12.47,12.47,0,1,1,14.74-20.13l13.93,10.21c10.39,7.7,20.67,15.27,30.92,22.81l2.65,1.95a12.48,12.48,0,0,1-7.4,22.53ZM1393,1436.79a12.46,12.46,0,0,1-7.25-2.33q-9.27-6.63-18.67-13.22c-2.52-1.77-5-3.53-7.55-5.26q-10.89-7.62-21.88-15.08a12.48,12.48,0,1,1,14-20.65q11.16,7.57,22.11,15.24c2.52,1.73,5.1,3.53,7.65,5.33q9.48,6.63,18.85,13.34a12.48,12.48,0,0,1-7.27,22.63Zm-97.64-66.09a12.4,12.4,0,0,1-6.66-1.94q-4.66-2.94-9.35-5.87l-.71-.41c-12.63-7.85-25.23-15.43-37.43-22.52l-2.52-1.46a12.48,12.48,0,0,1,12.48-21.61l2.58,1.5c11.45,6.66,23.24,13.73,35.08,21h0l3.06,1.88q5.08,3.17,10.13,6.36a12.48,12.48,0,0,1-6.68,23Zm-102.14-58.86a12.46,12.46,0,0,1-5.73-1.4c-17.37-9-35-17.62-52.43-25.58a12.48,12.48,0,0,1,10.38-22.7c17.79,8.14,35.8,16.93,53.53,26.13a12.47,12.47,0,0,1-5.75,23.55Zm-107.21-49a12.39,12.39,0,0,1-4.59-.88c-18-7.13-36.4-13.89-54.74-20.09a12.47,12.47,0,1,1,8-23.63c18.74,6.33,37.57,13.24,56,20.53a12.47,12.47,0,0,1-4.61,24.07Zm-111.64-37.76a12.19,12.19,0,0,1-3.4-.48c-18.49-5.22-37.5-10.09-56.52-14.47a12.48,12.48,0,0,1,5.61-24.32c19.4,4.48,38.82,9.45,57.7,14.78a12.48,12.48,0,0,1-3.39,24.49Zm-114.84-26.53a12.3,12.3,0,0,1-2.25-.2c-10.05-1.83-20.33-3.58-30.58-5.2l-1-.15c-8.56-1.36-17.35-2.65-26.1-3.86a12.48,12.48,0,0,1,3.4-24.72c8.6,1.18,17.23,2.45,25.66,3.78l1,.15c10.76,1.69,21.57,3.53,32.13,5.45a12.48,12.48,0,0,1-2.22,24.75Zm-116.78-16.14c-.4,0-.8,0-1.21-.06-15.69-1.51-31.81-2.81-47.92-3.86l-10.41-.65a12.48,12.48,0,1,1,1.48-24.91q5.29.32,10.56.66c16.36,1.07,32.74,2.39,48.69,3.93a12.47,12.47,0,0,1-1.19,24.89Z"/><path class="cls-3" d="M1558.83,1557.31a12.48,12.48,0,0,1-7.15-2.26q-11.52-8.08-23-16.32a12.48,12.48,0,1,1,14.54-20.28q11.38,8.16,22.79,16.17a12.48,12.48,0,0,1-7.18,22.69Z"/></g><g class="cls-2"><path class="cls-3" d="M1222.43,1638.41a12.48,12.48,0,0,1-10.28-19.52q7.9-11.58,15.73-23.16a12.48,12.48,0,1,1,20.68,14q-7.86,11.64-15.82,23.28A12.47,12.47,0,0,1,1222.43,1638.41Z"/><path class="cls-3" d="M1268.86,1569.26a12.49,12.49,0,0,1-10.4-19.36q8.18-12.39,16.24-24.71,7-10.76,13.94-21.42a12.48,12.48,0,0,1,20.93,13.6q-7,10.7-14,21.47-8.08,12.36-16.29,24.81A12.49,12.49,0,0,1,1268.86,1569.26Zm60.2-92.59a12.48,12.48,0,0,1-10.49-19.23l29.86-46.45a12.48,12.48,0,1,1,21,13.49l-29.86,46.46A12.45,12.45,0,0,1,1329.06,1476.67Zm59.77-92.87a12.47,12.47,0,0,1-10.47-19.25l5.36-8.27c8.25-12.78,16.43-25.28,24.43-37.45l.53-.81a12.47,12.47,0,0,1,21.23,13l-.6,1q-12.09,18.39-24.64,37.78l-5.36,8.25A12.46,12.46,0,0,1,1388.83,1383.8Zm60.87-92.13a12.49,12.49,0,0,1-10.29-19.52c11.56-16.94,22-31.82,31.94-45.49a12.48,12.48,0,0,1,20.19,14.67c-9.78,13.46-20.09,28.15-31.52,44.89A12.47,12.47,0,0,1,1449.7,1291.67Zm65.26-89.06a12.48,12.48,0,0,1-9.67-20.35c8.61-10.57,16.89-20.14,24.62-28.44l.55-.57c1.57-1.66,3.09-3.27,4.62-4.85q4-4.1,7.89-8.09a12.48,12.48,0,1,1,17.8,17.49q-3.88,3.95-7.76,8c-1.45,1.5-2.92,3.06-4.44,4.66l-.48.5c-7.28,7.82-15.19,17-23.44,27.1A12.46,12.46,0,0,1,1515,1202.61Zm76.19-79.92a12.48,12.48,0,0,1-8.64-21.48c13.27-12.74,27-25.5,40.65-37.9a12.48,12.48,0,0,1,16.75,18.5c-13.52,12.24-27,24.83-40.12,37.4A12.45,12.45,0,0,1,1591.15,1122.69Zm81.85-74.12a12.47,12.47,0,0,1-8.1-22c14-11.95,28.38-23.88,42.77-35.48a12.47,12.47,0,1,1,15.65,19.43c-14.2,11.45-28.41,23.23-42.22,35A12.46,12.46,0,0,1,1673,1048.57Zm86-69.27a12.48,12.48,0,0,1-7.56-22.41q7.51-5.71,15-11.27c9.83-7.32,19.84-14.62,29.74-21.71a12.48,12.48,0,1,1,14.52,20.3c-9.78,7-19.66,14.2-29.36,21.43q-7.38,5.48-14.8,11.12A12.41,12.41,0,0,1,1759,979.3ZM1848.8,915a12.47,12.47,0,0,1-7-22.82c15.31-10.32,31-20.54,46.52-30.39a12.48,12.48,0,0,1,13.35,21.09c-15.36,9.72-30.82,19.81-45.93,30A12.42,12.42,0,0,1,1848.8,915Zm93.31-59a12.48,12.48,0,0,1-6.38-23.21c16.3-9.67,32.53-19,48.24-27.65A12.48,12.48,0,0,1,1996,827c-15.49,8.56-31.5,17.73-47.58,27.27A12.37,12.37,0,0,1,1942.11,856Z"/></g><path class="cls-13" d="M2163.62,567.9a7.57,7.57,0,0,1-2.81-14.61c8.89-3.56,13.67-5.28,13.87-5.35a7.58,7.58,0,1,1,5.12,14.26s-4.75,1.71-13.37,5.16A7.5,7.5,0,0,1,2163.62,567.9Z"/><path class="cls-13" d="M634.5,1938.2a7.58,7.58,0,0,1-.1-15.15c11.06-.15,22.37-.66,33.63-1.51a7.58,7.58,0,0,1,1.14,15.11c-11.57.88-23.19,1.4-34.56,1.55Zm-34.08-.64H600c-11.55-.6-23.15-1.59-34.48-3a7.57,7.57,0,1,1,1.82-15c11,1.32,22.24,2.29,33.45,2.87a7.58,7.58,0,0,1-.39,15.14Zm102.07-4.66a7.58,7.58,0,0,1-1.19-15.06,321.53,321.53,0,0,0,32.52-7,7.58,7.58,0,1,1,3.94,14.64,337,337,0,0,1-34.06,7.32A7.06,7.06,0,0,1,702.49,1932.9Zm-169.71-3.52a8,8,0,0,1-1.45-.14c-11.35-2.2-22.7-4.82-33.75-7.81a7.58,7.58,0,0,1,4-14.63c10.69,2.89,21.68,5.43,32.67,7.56a7.58,7.58,0,0,1-1.43,15Zm235.41-14a7.58,7.58,0,0,1-2.64-14.69c10.19-3.78,20.56-8.14,30.83-12.94a7.57,7.57,0,1,1,6.42,13.72c-10.64,5-21.4,9.5-32,13.43A7.64,7.64,0,0,1,768.19,1915.36ZM3632.13,1912a7.56,7.56,0,0,1-5.76-2.65c-7.39-8.63-14.9-17.26-22.32-25.65a7.58,7.58,0,0,1,11.35-10c7.48,8.45,15,17.14,22.48,25.84a7.58,7.58,0,0,1-5.75,12.5ZM467,1911.57a7.72,7.72,0,0,1-2.52-.43c-10.86-3.83-21.71-8.11-32.23-12.74a7.57,7.57,0,1,1,6.09-13.87c10.18,4.47,20.67,8.61,31.18,12.32a7.57,7.57,0,0,1-2.52,14.72Zm362.92-25a7.58,7.58,0,0,1-3.7-14.19c9.52-5.32,19.22-11.14,28.83-17.32a7.58,7.58,0,0,1,8.19,12.75c-9.87,6.34-19.84,12.33-29.63,17.8A7.58,7.58,0,0,1,829.92,1886.6Zm-425.31-2.44a7.63,7.63,0,0,1-3.56-.89c-10.14-5.41-20.22-11.27-30-17.44a7.57,7.57,0,1,1,8.1-12.8c9.43,6,19.18,11.63,29,16.86a7.58,7.58,0,0,1-3.57,14.27Zm3182.3-23.31a7.54,7.54,0,0,1-5.59-2.46c-7.68-8.39-15.47-16.75-23.17-24.85a7.58,7.58,0,1,1,11-10.44c7.77,8.17,15.63,16.6,23.36,25.05a7.58,7.58,0,0,1-5.58,12.7Zm-2699.59-11a7.58,7.58,0,0,1-4.44-13.72c8.88-6.41,17.93-13.28,26.9-20.42a7.58,7.58,0,1,1,9.44,11.85c-9.16,7.29-18.4,14.31-27.47,20.85A7.53,7.53,0,0,1,887.32,1849.81ZM347,1847.69a7.5,7.5,0,0,1-4.5-1.49c-9.22-6.83-18.34-14.11-27.11-21.64a7.58,7.58,0,0,1,9.88-11.5c8.49,7.29,17.32,14.35,26.25,21a7.57,7.57,0,0,1-4.52,13.66Zm3193-36.31a7.56,7.56,0,0,1-5.39-2.25c-8-8.12-16.12-16.17-24.1-23.94a7.58,7.58,0,1,1,10.57-10.86c8.06,7.84,16.24,16,24.32,24.15a7.57,7.57,0,0,1-5.4,12.9Zm-2599.15-4a7.58,7.58,0,0,1-5-13.31c8.31-7.2,16.79-14.81,25.19-22.63a7.58,7.58,0,0,1,10.33,11.1c-8.54,7.94-17.15,15.68-25.61,23A7.55,7.55,0,0,1,940.76,1807.36Zm-645.56-4.11a7.56,7.56,0,0,1-5.33-2.19c-8.14-8-16.14-16.52-23.79-25.19a7.58,7.58,0,0,1,11.37-10c7.42,8.41,15.18,16.64,23.08,24.44a7.58,7.58,0,0,1-5.33,13ZM3491,1763.81a7.54,7.54,0,0,1-5.16-2c-8.3-7.74-16.74-15.44-25.09-22.86a7.58,7.58,0,1,1,10.08-11.32c8.43,7.5,17,15.27,25.34,23.09a7.58,7.58,0,0,1-5.17,13.12Zm-2500.22-2.92a7.58,7.58,0,0,1-5.34-13c7.85-7.78,15.84-15.93,23.76-24.24a7.58,7.58,0,0,1,11,10.46c-8,8.41-16.11,16.66-24.06,24.54A7.51,7.51,0,0,1,990.78,1760.89Zm-740.73-8.77a7.56,7.56,0,0,1-6-2.95c-7-9.06-13.8-18.5-20.25-28.07a7.57,7.57,0,1,1,12.56-8.47c6.28,9.3,12.9,18.48,19.69,27.28a7.58,7.58,0,0,1-6,12.21Zm3190-33.67a7.54,7.54,0,0,1-4.9-1.8c-8.67-7.36-17.47-14.63-26.14-21.61a7.58,7.58,0,0,1,9.51-11.81c8.77,7.07,17.66,14.42,26.44,21.87a7.58,7.58,0,0,1-4.91,13.35Zm-2402.1-7a7.58,7.58,0,0,1-5.61-12.67c7.42-8.18,15-16.74,22.55-25.43a7.58,7.58,0,1,1,11.45,9.93c-7.62,8.78-15.28,17.42-22.78,25.68A7.54,7.54,0,0,1,1037.94,1711.49Zm-826-15.93a7.57,7.57,0,0,1-6.54-3.74c-5.8-9.87-11.38-20.09-16.6-30.35a7.58,7.58,0,0,1,13.51-6.87c5.08,10,10.51,19.94,16.16,29.55a7.57,7.57,0,0,1-6.53,11.41Zm3175-19.89a7.51,7.51,0,0,1-4.59-1.56c-9-6.88-18.2-13.66-27.25-20.17a7.58,7.58,0,1,1,8.85-12.3c9.16,6.58,18.45,13.46,27.58,20.42a7.58,7.58,0,0,1-4.59,13.61Zm-2304.19-15.76a7.57,7.57,0,0,1-5.81-12.43c7.06-8.48,14.31-17.34,21.54-26.33a7.58,7.58,0,1,1,11.81,9.49c-7.28,9.07-14.59,18-21.71,26.54A7.57,7.57,0,0,1,1082.72,1659.91Zm2248.77-24a7.54,7.54,0,0,1-4.23-1.3c-9.37-6.33-18.92-12.55-28.37-18.5a7.58,7.58,0,0,1,8.08-12.83c9.58,6,19.26,12.35,28.77,18.76a7.59,7.59,0,0,1-4.25,13.87ZM181,1634.73a7.59,7.59,0,0,1-7-4.56c-4.57-10.52-8.9-21.32-12.86-32.11a7.58,7.58,0,0,1,14.24-5.22c3.85,10.51,8.06,21,12.52,31.29a7.57,7.57,0,0,1-6.94,10.6Zm944.54-28.06a7.57,7.57,0,0,1-6-12.23c6.84-8.8,13.81-17.89,20.71-27a7.58,7.58,0,1,1,12.09,9.13c-6.94,9.2-13.95,18.35-20.84,27.21A7.56,7.56,0,0,1,1125.53,1606.67Zm2148.24-7.13a7.58,7.58,0,0,1-3.82-1c-9.76-5.71-19.68-11.29-29.5-16.59a7.58,7.58,0,0,1,7.2-13.34c10,5.38,20,11,29.95,16.85a7.58,7.58,0,0,1-3.83,14.12Zm-3116.3-28.9a7.59,7.59,0,0,1-7.25-5.4c-3.32-11-6.36-22.24-9-33.4a7.58,7.58,0,1,1,14.74-3.52c2.59,10.87,5.55,21.82,8.79,32.55a7.6,7.6,0,0,1-7.26,9.77Zm3056.28-3.5a7.45,7.45,0,0,1-3.35-.79c-10.12-5-20.41-9.86-30.59-14.45a7.58,7.58,0,0,1,6.22-13.82c10.35,4.66,20.81,9.6,31.09,14.69a7.58,7.58,0,0,1-3.37,14.37Zm-1140.37-13.28h-.12c-11.52-.17-23.09-.55-34.37-1.14a7.58,7.58,0,0,1,.79-15.14c11.09.58,22.47,1,33.8,1.12a7.58,7.58,0,0,1-.1,15.16Zm34.12-.12a7.58,7.58,0,0,1-.16-15.15c11.11-.24,22.49-.66,33.85-1.28a7.58,7.58,0,1,1,.82,15.14c-11.52.62-23.08,1-34.35,1.29Zm-940.78-1.58a7.58,7.58,0,0,1-6.1-12.07c6.61-9,13.37-18.29,20.09-27.66a7.58,7.58,0,0,1,12.31,8.84c-6.75,9.41-13.54,18.77-20.19,27.8A7.56,7.56,0,0,1,1166.72,1552.16Zm838.59-1.88c-.24,0-.47,0-.71,0-11.44-1.06-22.93-2.36-34.15-3.88a7.58,7.58,0,1,1,2-15c11,1.49,22.28,2.77,33.52,3.81a7.58,7.58,0,0,1-.69,15.12Zm170.33-.16A7.58,7.58,0,0,1,2175,1535c10.93-.89,22.31-1.94,33.82-3.11a7.58,7.58,0,1,1,1.54,15.08c-11.61,1.18-23.1,2.24-34.13,3.13Zm67.89-6.9a7.58,7.58,0,0,1-.89-15.1c10.81-1.3,22.16-2.75,33.73-4.32a7.58,7.58,0,1,1,2,15c-11.64,1.58-23.07,3-34,4.34A7,7,0,0,1,2243.53,1543.22Zm-305.7-2.07a7,7,0,0,1-1.35-.12c-11.27-2-22.61-4.33-33.7-6.84a7.58,7.58,0,0,1,3.35-14.78c10.87,2.46,22,4.72,33,6.71a7.58,7.58,0,0,1-1.34,15Zm1213.72-2a7.48,7.48,0,0,1-2.84-.56c-10.42-4.22-21-8.29-31.58-12.1a7.58,7.58,0,1,1,5.15-14.25c10.72,3.87,21.52,8,32.12,12.3a7.58,7.58,0,0,1-2.85,14.61Zm-840.39-5.06a7.58,7.58,0,0,1-1.09-15.07c10.72-1.58,21.74-3.25,33.67-5.12a7.58,7.58,0,1,1,2.34,15c-12,1.87-23,3.55-33.8,5.13A7.12,7.12,0,0,1,2311.16,1534.11Zm-439.72-8a7.79,7.79,0,0,1-2-.27c-11-3-22.09-6.36-32.94-9.9a7.58,7.58,0,0,1,4.69-14.41c10.63,3.47,21.49,6.73,32.28,9.7a7.58,7.58,0,0,1-2,14.88Zm507.16-2.48a7.58,7.58,0,0,1-1.21-15.06q16.83-2.73,33.66-5.53a7.58,7.58,0,1,1,2.47,15q-16.84,2.79-33.69,5.54A7.46,7.46,0,0,1,2378.6,1523.61Zm708.8-7.6a7.3,7.3,0,0,1-2.29-.36c-10.69-3.39-21.6-6.62-32.42-9.59a7.58,7.58,0,1,1,4-14.61c11,3,22.11,6.31,33,9.76a7.58,7.58,0,0,1-2.3,14.8Zm-641.46-3.53a7.58,7.58,0,0,1-1.23-15q16.83-2.81,33.69-5.56a7.57,7.57,0,1,1,2.44,15q-16.83,2.76-33.65,5.56A7.61,7.61,0,0,1,2445.94,1512.48ZM1806.69,1505a7.59,7.59,0,0,1-2.67-.49c-10.6-4-21.33-8.3-31.91-12.81a7.58,7.58,0,1,1,6-13.94c10.38,4.43,20.91,8.65,31.3,12.56a7.58,7.58,0,0,1-2.67,14.68Zm-1665.09-.82a7.59,7.59,0,0,1-7.46-6.26c-2-11.35-3.71-22.87-5-34.26a7.58,7.58,0,0,1,15-1.75c1.29,11.09,2.94,22.31,4.91,33.36a7.6,7.6,0,0,1-7.47,8.91Zm2371.7-2.71a7.58,7.58,0,0,1-1.17-15.06c12-1.89,23-3.6,33.79-5.21a7.58,7.58,0,1,1,2.24,15c-10.73,1.6-21.74,3.3-33.66,5.19A8.08,8.08,0,0,1,2513.3,1501.5Zm508.34-3.54a7.92,7.92,0,0,1-1.73-.2c-10.89-2.54-22-4.9-33.07-7a7.58,7.58,0,0,1,2.85-14.89c11.25,2.16,22.57,4.57,33.66,7.15a7.58,7.58,0,0,1-1.71,15Zm-1815-1.43a7.58,7.58,0,0,1-6.19-11.93c6.36-9.06,12.91-18.48,19.46-28a7.58,7.58,0,1,1,12.48,8.6c-6.58,9.55-13.15,19-19.54,28.1A7.56,7.56,0,0,1,1206.66,1496.53Zm1374.15-5.11a7.58,7.58,0,0,1-1-15.08c11.59-1.61,23-3.12,33.93-4.48a7.58,7.58,0,0,1,1.88,15c-10.86,1.35-22.21,2.85-33.73,4.45A7.51,7.51,0,0,1,2580.81,1491.42Zm373.85-6.34a7.65,7.65,0,0,1-1.16-.09c-11-1.68-22.3-3.19-33.53-4.49a7.57,7.57,0,0,1,1.73-15c11.42,1.31,22.89,2.85,34.09,4.56a7.58,7.58,0,0,1-1.13,15.07ZM2648.54,1483a7.58,7.58,0,0,1-.81-15.11c11.55-1.25,23-2.38,34.1-3.37a7.58,7.58,0,0,1,1.34,15.1c-11,1-22.35,2.1-33.81,3.34A7.63,7.63,0,0,1,2648.54,1483ZM1744,1478.31a7.55,7.55,0,0,1-3.25-.74c-10.14-4.83-20.48-10-30.73-15.38a7.58,7.58,0,0,1,7-13.43c10.08,5.29,20.25,10.38,30.21,15.13a7.58,7.58,0,0,1-3.27,14.42Zm1142.86-1.06c-.2,0-.41,0-.61,0-11.1-.88-22.47-1.59-33.8-2.11a7.58,7.58,0,0,1,.7-15.14c11.49.53,23,1.25,34.3,2.14a7.58,7.58,0,0,1-.59,15.13Zm-170.38-.25a7.58,7.58,0,0,1-.5-15.14c11.56-.78,23.09-1.41,34.26-1.88a7.58,7.58,0,0,1,.64,15.14c-11,.47-22.45,1.09-33.89,1.86Zm68.17-2.86a7.58,7.58,0,0,1-.11-15.15q17.25-.27,34.31,0a7.58,7.58,0,1,1-.22,15.15q-16.85-.22-33.86,0Zm-1101-27.45a7.56,7.56,0,0,1-3.74-1c-9.63-5.49-19.54-11.34-29.47-17.39a7.58,7.58,0,0,1,7.9-12.94c9.79,6,19.57,11.75,29.07,17.16a7.58,7.58,0,0,1-3.76,14.16Zm-438.27-6.36a7.57,7.57,0,0,1-6.27-11.82q9.6-14.16,19-28.31a7.57,7.57,0,1,1,12.6,8.41q-9.46,14.19-19.09,28.39A7.54,7.54,0,0,1,1245.4,1440.33Zm-1111.69-4a7.57,7.57,0,0,1-7.56-7.16c-.55-10-.83-20.21-.83-30.19,0-1.48,0-3,0-4.43a7.57,7.57,0,0,1,7.57-7.51H133a7.58,7.58,0,0,1,7.51,7.65c0,1.43,0,2.86,0,4.29,0,9.71.28,19.58.81,29.36a7.57,7.57,0,0,1-7.15,8Zm1491.87-25.06a7.57,7.57,0,0,1-4.11-1.22c-9.2-6-18.82-12.33-28.58-18.94a7.58,7.58,0,1,1,8.51-12.55c9.67,6.56,19.19,12.87,28.3,18.77a7.58,7.58,0,0,1-4.12,13.94Zm-342.23-27.77a7.58,7.58,0,0,1-6.32-11.75q9.43-14.33,18.72-28.54a7.58,7.58,0,1,1,12.69,8.28q-9.3,14.24-18.76,28.6A7.56,7.56,0,0,1,1283.35,1383.51ZM1569,1373a7.58,7.58,0,0,1-4.35-1.38c-8.87-6.23-18-12.72-27.85-19.84a7.58,7.58,0,0,1,8.86-12.29c9.83,7.08,18.89,13.53,27.71,19.73A7.58,7.58,0,0,1,1569,1373Zm-1434.7-4.91-.57,0a7.59,7.59,0,0,1-7-8.12c.85-11.55,2.1-23.14,3.71-34.44a7.58,7.58,0,0,1,15,2.14c-1.57,11-2.78,22.21-3.6,33.42A7.59,7.59,0,0,1,134.31,1368.09Zm1379.34-34.93a7.54,7.54,0,0,1-4.47-1.47q-13.73-10.05-27.51-20.22a7.58,7.58,0,0,1,9-12.2q13.77,10.15,27.46,20.19a7.58,7.58,0,0,1-4.48,13.7Zm-192.94-6.87a7.58,7.58,0,0,1-6.36-11.7q9.36-14.44,18.52-28.69a7.58,7.58,0,0,1,12.75,8.2q-9.18,14.25-18.55,28.72A7.57,7.57,0,0,1,1320.71,1326.29ZM144,1300.58a7.43,7.43,0,0,1-1.61-.18,7.57,7.57,0,0,1-5.8-9c2.46-11.37,5.37-22.68,8.62-33.62a7.58,7.58,0,0,1,14.53,4.32c-3.15,10.57-5.95,21.51-8.34,32.51A7.59,7.59,0,0,1,144,1300.58Zm1314.72-7.86a7.48,7.48,0,0,1-4.48-1.47q-13.67-10-27.51-20.11a7.58,7.58,0,0,1,8.91-12.26q13.89,10.09,27.57,20.16a7.58,7.58,0,0,1-4.49,13.68Zm-101-23.88a7.59,7.59,0,0,1-6.37-11.68l17.8-27.71a7.58,7.58,0,0,1,10.76-10.23c9,6.24,18.14,12.68,28,19.69a7.58,7.58,0,1,1-8.79,12.34c-6.17-4.4-12.07-8.57-17.83-12.61l-17.16,26.71A7.55,7.55,0,0,1,1357.72,1268.84ZM163.46,1235.21a7.71,7.71,0,0,1-2.73-.51,7.58,7.58,0,0,1-4.33-9.8c4.19-10.85,8.86-21.58,13.87-31.87a7.58,7.58,0,1,1,13.63,6.64c-4.83,9.91-9.33,20.24-13.37,30.69A7.57,7.57,0,0,1,163.46,1235.21Zm1184-21.41a7.51,7.51,0,0,1-4.21-1.28c-9.62-6.45-19.17-12.73-28.39-18.66a7.58,7.58,0,0,1,8.2-12.74c9.3,6,18.93,12.31,28.63,18.81a7.58,7.58,0,0,1-4.23,13.87Zm47.28-2.45a7.58,7.58,0,0,1-6.36-11.69q9.42-14.6,18.59-28.71a7.58,7.58,0,0,1,12.71,8.26q-9.17,14.08-18.57,28.67A7.58,7.58,0,0,1,1394.69,1211.35ZM1290,1176.92a7.56,7.56,0,0,1-4-1.12c-9.74-6-19.54-11.83-29.12-17.4a7.58,7.58,0,1,1,7.62-13.1c9.68,5.62,19.58,11.54,29.43,17.58a7.58,7.58,0,0,1-4,14Zm-1096.69-3a7.5,7.5,0,0,1-3.9-1.09,7.58,7.58,0,0,1-2.59-10.4c6-10,12.49-19.71,19.3-29a7.58,7.58,0,0,1,12.21,9c-6.53,8.88-12.76,18.23-18.52,27.8A7.58,7.58,0,0,1,193.35,1174ZM1432,1154.06a7.57,7.57,0,0,1-6.32-11.75c6.62-10,13-19.64,19-28.51a7.58,7.58,0,1,1,12.58,8.45c-6,8.84-12.3,18.4-18.9,28.4A7.57,7.57,0,0,1,1432,1154.06Zm-200.92-11.4a7.57,7.57,0,0,1-3.63-.93c-9.94-5.45-20-10.79-29.94-15.88a7.58,7.58,0,0,1,6.92-13.48c10,5.15,20.24,10.55,30.3,16.07a7.57,7.57,0,0,1-3.65,14.22Zm-997.32-23.55a7.58,7.58,0,0,1-5.65-12.63c7.73-8.64,16-17,24.45-24.8a7.58,7.58,0,1,1,10.26,11.15c-8.14,7.49-16,15.48-23.41,23.75A7.58,7.58,0,0,1,233.75,1119.11Zm936.65-7.55a7.63,7.63,0,0,1-3.26-.74c-10.17-4.86-20.53-9.63-30.77-14.15a7.58,7.58,0,0,1,6.13-13.86c10.38,4.58,20.86,9.41,31.18,14.33a7.58,7.58,0,0,1-3.28,14.42Zm299.76-14.21a7.58,7.58,0,0,1-6.22-11.89c6.88-10,13.54-19.41,19.76-28.07a7.58,7.58,0,0,1,12.31,8.85c-6.18,8.58-12.77,18-19.61,27.84A7.56,7.56,0,0,1,1470.16,1097.35ZM1108.06,1084a7.62,7.62,0,0,1-2.86-.56c-10.41-4.24-21-8.38-31.54-12.3a7.58,7.58,0,1,1,5.29-14.2c10.66,4,21.41,8.16,32,12.46a7.58,7.58,0,0,1-2.86,14.6Zm-824.19-11a7.58,7.58,0,0,1-4.57-13.63c9.19-6.93,18.87-13.53,28.76-19.6a7.58,7.58,0,1,1,7.93,12.91c-9.48,5.83-18.76,12.15-27.56,18.79A7.56,7.56,0,0,1,283.87,1073Zm760.32-12.82a7.34,7.34,0,0,1-2.43-.41c-10.61-3.59-21.45-7.09-32.23-10.4a7.58,7.58,0,0,1,4.45-14.49c10.91,3.35,21.9,6.9,32.65,10.54a7.58,7.58,0,0,1-2.44,14.76Zm466-18.28a7.58,7.58,0,0,1-6-12.17c7.45-9.78,14.66-18.88,21.43-27.05a7.58,7.58,0,1,1,11.67,9.67c-6.64,8-13.72,16.94-21,26.56A7.56,7.56,0,0,1,1510.17,1041.9ZM979,1040.19a7.72,7.72,0,0,1-2-.27c-10.8-3-21.83-5.84-32.79-8.52a7.58,7.58,0,0,1,3.61-14.72c11.1,2.71,22.27,5.62,33.2,8.62a7.58,7.58,0,0,1-2,14.89Zm-637.15-2.85a7.58,7.58,0,0,1-3.36-14.38c10.26-5.06,21-9.76,31.82-14a7.58,7.58,0,0,1,5.49,14.13c-10.45,4.06-20.75,8.58-30.6,13.44A7.59,7.59,0,0,1,341.88,1037.34Zm571-13.37a8.08,8.08,0,0,1-1.61-.17c-10.91-2.36-22.09-4.62-33.21-6.71a7.58,7.58,0,1,1,2.8-14.89c11.25,2.11,22.56,4.4,33.61,6.78a7.58,7.58,0,0,1-1.59,15Zm-507.49-11.35a7.57,7.57,0,0,1-2.14-14.84c10.89-3.23,22.19-6.1,33.59-8.55A7.57,7.57,0,1,1,440,1004c-11,2.37-22,5.15-32.48,8.27A7.67,7.67,0,0,1,405.34,1012.62Zm440.5-1.26a8.48,8.48,0,0,1-1.22-.1c-11-1.78-22.3-3.46-33.53-5a7.58,7.58,0,1,1,2-15c11.36,1.55,22.77,3.25,33.91,5a7.58,7.58,0,0,1-1.2,15.06Zm-67.55-9.22a8.43,8.43,0,0,1-.86,0c-11.08-1.25-22.43-2.39-33.74-3.4a7.58,7.58,0,0,1,1.34-15.1c11.43,1,22.9,2.18,34.1,3.44a7.58,7.58,0,0,1-.84,15.11Zm-306.35-3.89a7.58,7.58,0,0,1-1.06-15.08c11.2-1.6,22.77-2.86,34.38-3.76a7.58,7.58,0,0,1,1.17,15.11c-11.29.87-22.53,2.1-33.41,3.65A8,8,0,0,1,471.94,998.25Zm238.44-2.19-.52,0c-11.18-.76-22.58-1.41-33.88-1.93a7.58,7.58,0,1,1,.71-15.14c11.4.53,22.91,1.19,34.19,1.95a7.58,7.58,0,0,1-.5,15.14ZM539.92,992.9a7.58,7.58,0,0,1-.2-15.15c11.43-.31,23-.52,34.26-.63h.07a7.58,7.58,0,0,1,.07,15.16c-11.21.11-22.65.32-34,.62Zm102.34,0h-.21c-11.19-.3-22.62-.5-33.95-.59a7.58,7.58,0,0,1,.13-15.16c11.42.1,22.94.3,34.24.6a7.58,7.58,0,0,1-.21,15.16ZM1554,989.47a7.58,7.58,0,0,1-5.49-12.8l2.56-2.67c7-7.25,14.26-14.59,21.5-21.81a7.58,7.58,0,1,1,10.71,10.72c-7.19,7.17-14.36,14.45-21.33,21.63l-2.46,2.57A7.55,7.55,0,0,1,1554,989.47Zm48.31-48.23a7.58,7.58,0,0,1-5.26-13c8.16-7.84,16.54-15.76,24.92-23.53a7.57,7.57,0,0,1,10.3,11.11c-8.31,7.71-16.62,15.56-24.71,23.34A7.52,7.52,0,0,1,1602.33,941.24Zm50-46.42a7.58,7.58,0,0,1-5-13.23c8.44-7.55,17.1-15.16,25.74-22.62a7.58,7.58,0,0,1,9.91,11.48c-8.58,7.4-17.17,14.94-25.55,22.44A7.55,7.55,0,0,1,1652.37,894.82Zm51.69-44.6a7.58,7.58,0,0,1-4.85-13.4c8.7-7.25,17.63-14.54,26.53-21.69a7.58,7.58,0,0,1,9.49,11.82c-8.83,7.09-17.69,14.33-26.33,21.52A7.51,7.51,0,0,1,1704.06,850.22Zm53.24-42.73a7.58,7.58,0,0,1-4.64-13.57c9-7,18.18-13.95,27.28-20.74a7.58,7.58,0,0,1,9.06,12.15c-9,6.74-18.13,13.66-27.07,20.57A7.53,7.53,0,0,1,1757.3,807.49ZM1812,766.65a7.57,7.57,0,0,1-4.43-13.72c9.21-6.63,18.63-13.29,28-19.77a7.58,7.58,0,0,1,8.64,12.45c-9.29,6.44-18.64,13-27.78,19.62A7.57,7.57,0,0,1,1812,766.65Zm56.11-38.89a7.58,7.58,0,0,1-4.21-13.88c9.46-6.32,19.1-12.63,28.67-18.78a7.58,7.58,0,0,1,8.19,12.75c-9.49,6.1-19.06,12.37-28.45,18.63A7.47,7.47,0,0,1,1868.12,727.76Zm57.45-36.9a7.57,7.57,0,0,1-4-14c9.68-6,19.55-12,29.32-17.75a7.58,7.58,0,1,1,7.73,13c-9.7,5.75-19.48,11.68-29.09,17.61A7.49,7.49,0,0,1,1925.57,690.86ZM1984.3,656a7.58,7.58,0,0,1-3.76-14.16c9.93-5.64,20-11.25,30-16.67a7.58,7.58,0,1,1,7.24,13.31c-9.87,5.38-19.87,10.94-29.71,16.53A7.45,7.45,0,0,1,1984.3,656Zm60-32.62a7.58,7.58,0,0,1-3.49-14.31c10.19-5.29,20.49-10.5,30.6-15.49a7.58,7.58,0,1,1,6.7,13.59c-10,4.95-20.22,10.11-30.32,15.35A7.56,7.56,0,0,1,2044.27,623.41Zm61.26-30.19a7.58,7.58,0,0,1-3.21-14.45c10.65-5,21.19-9.71,31.31-14.11a7.58,7.58,0,0,1,6,13.9c-10,4.35-20.43,9-31,14A7.55,7.55,0,0,1,2105.53,593.22Z"/><path class="cls-13" d="M3662,1947.54a7.55,7.55,0,0,1-5.86-2.77q-4.64-5.65-9.27-11.22a7.58,7.58,0,1,1,11.66-9.69q4.65,5.6,9.33,11.3a7.58,7.58,0,0,1-5.86,12.38Z"/><path class="cls-8" d="M783,3867.59c58.32,38.88,483.47,23.76,1030.87-67.66s-438.23-125.73-566.12-94.54S708.13,3817.68,783,3867.59Z"/><g class="cls-2"><path class="cls-3" d="M3419.15,62.15,3076,1284a138.36,138.36,0,0,0,102.89,172.41l985.4,221.27a156.59,156.59,0,0,0,183.59-105.5l310.05-979.07c29.11-91.92-23.68-189.68-116.51-215.75Z"/></g><path class="cls-4" d="M3285.46,129.94,3058.94,1263c-14,70,31.83,138.66,101.79,152.65L4222.24,1627.9c70,14,138.67-31.83,152.65-101.79L4601.41,393c14-70-31.83-138.67-101.78-152.65L3438.11,28.16C3368.16,14.17,3299.45,60,3285.46,129.94Z"/><path class="cls-5" d="M4247.71,1634.22a133.27,133.27,0,0,1-26.21-2.61L3160,1419.4c-72.19-14.43-119.19-84.91-104.75-157.11L3281.75,129.2C3296.18,57,3366.65,10,3438.86,24.44L4500.37,236.65a133.93,133.93,0,0,1,104.76,157.11l-226.52,1133.1a134.13,134.13,0,0,1-130.9,107.36ZM3289.18,130.68l-226.52,1133.1A126.08,126.08,0,0,0,3161.47,1412L4223,1624.18a126.35,126.35,0,0,0,148.19-98.81L4597.7,392.27a126.35,126.35,0,0,0-98.81-148.19L3437.37,31.87a126.09,126.09,0,0,0-148.19,98.81Z"/><path class="cls-7" d="M3421.63,736.05c5.39,50.81,73.77,5.54,163.28,32.64,60.09,18.19,216.32,25.14,343.73,68.72,117.33,40.12,216.56,49.25,164.42,12S3968.74,771,3879.94,753.2s-131.76-11.45-212-42.38-154.69-90.5-167.29-57.27S3416.47,687.35,3421.63,736.05Z"/><path class="cls-7" d="M4501.78,668.83c-24.5,44.84-69.78-30.35-163.27-32.64-121.5-3-242.85-53.65-343.74-68.72-122.64-18.31-216-28.68-156.4-52.12,71.22-28,169.06-62.19,233.74-6.89,68.82,58.85,126,40.09,212,42.38s177.59-24.08,176.45,11.44S4525.27,625.86,4501.78,668.83Z"/><circle class="cls-9" cx="4101.24" cy="669.34" r="102.24" transform="translate(727.93 3096.06) rotate(-45)"/><path class="cls-7" d="M3749.85,544.34c-10.5,19.2-33.85,3.44-69.91-14s-94.18-32.86-147.16-29.42-93.69-16.18-67-22.32,62-10.55,100.07-2.95,54,17.17,90.75,18.14,76-10.3,75.54,4.9S3759.9,526,3749.85,544.34Z"/><path class="cls-10" d="M3307.34,158l-12.57,62.86,1263.1,252.51,12.57-62.86c13.42-67.15-30.55-133.1-97.7-146.52L3453.86,60.28C3386.71,46.86,3320.76,90.83,3307.34,158Z"/><path class="cls-10" d="M3100.37,1193.27l-10.46,52.3c-13.42,67.14,30.56,133.09,97.7,146.52L4206.5,1595.77c67.14,13.43,133.09-30.55,146.52-97.69l10.45-52.3Z"/><circle class="cls-11" cx="3476.38" cy="204.1" r="118.57" transform="translate(873.89 2517.95) rotate(-45)"/><path class="cls-10" d="M3392.57,248.39A74.65,74.65,0,0,1,3539,277.66Z"/><circle class="cls-10" cx="3487.72" cy="153.21" r="34.22" transform="translate(500.93 1960.62) rotate(-33.69)"/><rect class="cls-12" x="3700.88" y="212.94" width="463.5" height="51.2" transform="translate(7742.19 1243.38) rotate(-168.69)"/><rect class="cls-12" x="3149.19" y="1325.58" width="908.13" height="32.34" transform="translate(6873.57 3363.83) rotate(-168.69)"/><rect class="cls-12" x="3134.4" y="1393.33" width="908.13" height="32.34" transform="translate(6831 3495.11) rotate(-168.69)"/><polygon class="cls-6" points="4450.68 994.87 3330.91 776.53 4363.34 1409.71 4450.68 994.87"/><polygon class="cls-8" points="4387.16 1296.57 3751.99 976.15 3951.62 1019.82 3558.48 820.9 4057.67 976.15 3998.41 976.15 4341.51 1107.15 4176.2 1107.15 4411.09 1182.94 4387.16 1296.57"/><polygon class="cls-8" points="4422.74 1127.56 4388.3 1128.99 4410.13 1107.15 4110.69 1001.1 4135.65 976.15 3879.88 907.53 3920.43 907.53 3657.47 851.68 3595.04 828.03 4450.68 1001.1 4422.74 1127.56"/><polygon class="cls-14" points="4363.34 1409.71 4363.34 1447.14 3100.1 1194.49 3196.79 745.34 3347.84 776.53 4363.34 1409.71"/><path class="cls-9" d="M1628.27,3465.22c197.79,263.71,427.33,268.24,895.2,233.93s655,134.13,854.64-202.74,465.48-1225.48-140-1461.14-1559,120-1667.06,555.09S1590.85,3415.31,1628.27,3465.22Z"/><path class="cls-15" d="M1784.23,2838.27s673.73,299.44,1107.29,56.15,486.59-340,486.59-340-296.32,174.67-427.32,180.91-25-6.24-25-6.24S3375,2570,3350,2323.62s-202.68-334.38-564.57-399.25-845.28,230.81-929.5,399.25,255.77-246.42,321.27-127.89S1640.75,2726,1784.23,2838.27Z"/><path class="cls-16" d="M1743.68,2217.57s212.1-311.92,336.87-371.18,385.95-179.67,467.87-134.12-71.74,277.6-237.06,333.74S1856,2323.62,1856,2323.62Z"/><path class="cls-16" d="M3140.9,2069c-23.08,145.35-105.93,305.3-137.09,413.66-22.42,78-73.55,144.14-127.82,195.91a.08.08,0,0,1-.06,0C2789.5,2761,2695,2807.08,2695,2807.08c-37.43,81.1-131,87.34-131,87.34s40.55-12.48-25-233.94S2183.48,2411,2177.24,2361.05c0,0,146.6-311.92,212.1-542.73,17.19-60.58,55.43-101,105.52-125.58,140.86-69.15,375.48-13.76,500.06,68.09,7.39,4.87,12.79,12.29,20.46,16.22C3138.53,1840.18,3159.83,1949.69,3140.9,2069Z"/><path class="cls-17" d="M3015.38,1777.05c-79.85,65.38-271.2,72.34-292.29,113-43.67,84.21-110.67,3.24-118.53-12.48-24.95-49.91,6.24-53-65.5-109.17-37.43-29.29-53.65-45.1-44.2-75.67,140.86-69.15,375.48-13.76,500.06,68.09A144.58,144.58,0,0,1,3015.38,1777.05Z"/><path class="cls-16" d="M2539.06,1768.41c71.74,56.14,71.14,56.15,71.74,99.81.79,57.77,99.36,91.22,118.53-9.35,10.73-56.34,318.15-49.91,327.51-174.68s-134.36-212.44-280.72-184C2591.52,1536,2415.38,1671.62,2539.06,1768.41Z"/><path class="cls-17" d="M2585.85,1681.07,2667,1784s185.05-71.68,180.91-230.82C2844.16,1411.26,2534.26,1625.25,2585.85,1681.07Z"/><path class="cls-18" d="M2841.62,1612.45C2810.43,1727.86,2667,1784,2667,1784l-46.79-62.39c4.12-25.82,2.46-57.11-1.69-87.39-8.26-61.23-26.38-118.47-26.38-118.47l142.51-149.62,11.23-11.76C2768.57,1483.1,2841.62,1612.45,2841.62,1612.45Z"/><path class="cls-19" d="M2618.47,1634.23c-8.26-61.23-26.38-118.47-26.38-118.47l142.51-149.62c.34,1,.65,2,1,3C2785.53,1530.36,2721.41,1630.54,2618.47,1634.23Z"/><path class="cls-18" d="M2429.89,1253.75s38.71,335.93,180.91,340c109.17,3.12,179.56-98.36,127.89-265.13C2670.06,1107.15,2429.89,1253.75,2429.89,1253.75Z"/><path class="cls-20" d="M2280.17,1100.92c-40.55,37.43-34.31,218.34,81.1,258.88s233.94-37.43,274.48-68.62,46.79,43.67,62.39,68.62l18.71-6.23s0-49.91,31.19-28.08-13.05,36.15,24.67,130.37c0,0,28.36-58.63,40.83-142.84s6.24-131-46.78-146.6S2798,1051,2695,1035.41s-311.92,25-346.23-28.07c0,0-49.9,81.1-9.35,127.89Z"/><path class="cls-21" d="M2581.86,2334.52l-1.84,1.58a29.28,29.28,0,0,1-16.19,6.91l-192,18.94a29.27,29.27,0,0,1-31.72-24.1l-65.16-373a29.29,29.29,0,0,1,9.25-26.81h0a29.31,29.31,0,0,1,16-7.3L2510.53,1905a29.27,29.27,0,0,1,32.6,25.32l48.72,378.28A29.28,29.28,0,0,1,2581.86,2334.52Z"/><path class="cls-18" d="M2720,1338s0-37.43,46.79-28.07-7.62,120.39-25,112.29S2713.73,1356.69,2720,1338Z"/><path class="cls-9" d="M786.11,3827s-31.19-87.34,90.45-121.65,229-51,268.25-156L1307,3643V3805.2Z"/><polygon class="cls-22" points="782.99 3827.04 782.99 3867.59 1307 3845.75 1307 3805.2 782.99 3827.04"/><polygon class="cls-22" points="992.52 3672.67 1026.28 3736.58 1063.71 3717.87 1028.11 3659.76 992.52 3672.67"/><polygon class="cls-22" points="1063.71 3642.58 1104.26 3699.15 1132.33 3671.08 1098.02 3618.26 1063.71 3642.58"/><path class="cls-9" d="M472.34,2489.15s48.63-79,151.49-5.52,183.06,146.79,289.48,111.74l28.44,185.07L815.21,2881.9Z"/><polygon class="cls-22" points="470.39 2486.72 438.76 2512.08 783.57 2907.26 815.21 2881.9 470.39 2486.72"/><polygon class="cls-22" points="721.89 2553.63 693.15 2619.95 731.16 2637.45 754.24 2573.33 721.89 2553.63"/><polygon class="cls-22" points="789.91 2590.36 771.13 2657.38 810.59 2661.72 830.34 2601.91 789.91 2590.36"/><path class="cls-23" d="M2563.71,2344.16l-231.24,28.35a8.64,8.64,0,0,1-9.62-7.52l-50-407.79a8.64,8.64,0,0,1,7.52-9.62l219-26.85a21,21,0,0,1,23.34,18.24l48.5,395.57A8.64,8.64,0,0,1,2563.71,2344.16Z"/><path class="cls-24" d="M2335.06,2060.57l-18.57,2.28a14.52,14.52,0,0,1-16.13-12.61l-8.44-68.84a14.52,14.52,0,0,1,12.6-16.13l18.58-2.27a14.52,14.52,0,0,1,16.13,12.6l8.44,68.84A14.51,14.51,0,0,1,2335.06,2060.57Z"/><rect class="cls-20" x="2301.92" y="1975.68" width="29.79" height="29.79" rx="4.78"/><rect class="cls-20" x="2307.88" y="2020.37" width="29.79" height="29.79" rx="4.78"/><path class="cls-17" d="M3140.9,2069c-23.08,145.35-105.93,305.3-137.09,413.66-22.42,78-73.55,144.14-127.82,195.91a.08.08,0,0,1-.06,0l-162.2-351.91,63.79-49.09,98.41,49.09s140.36-62.38,93.57-442.91C2956.28,1776.27,3084.25,1942.08,3140.9,2069Z"/><path class="cls-25" d="M1104.26,3593.1s383.65-1016.83,424.2-1069.86,277.61-115.41,570.8,0,424.21,293.2,424.21,293.2l-701.81,21.83-517.77,867.12S1216.55,3630.53,1104.26,3593.1Z"/><path class="cls-18" d="M2407.08,2102.23c-9.15-22.88,63-69.91,123-52.39,54.67,15.94,177.67,143.5,209.56,168.56l-38.72,109.34s-111.62-72.9-148.06-77.45-116.17,31.89-127.56,18.22,95.67-47.83,91.11-61.5-98,50.11-111.61,31.89,56.94-61.5,93.39-72.89-6.83-25.06-29.61-13.67-63.32,53.22-72.9,45.56c-11.38-9.11-6.83-25.06,29.62-50.11s66.06-43.28,91.11-41-6.83-25.05-22.78-22.77S2416.2,2125,2407.08,2102.23Z"/><path class="cls-16" d="M2794.83,2226.92c12.48-21.83,227.7,62.39,227.7,62.39s-139.54-503.65,17.29-482.47c269.67,36.43,282.42,704.54,176.09,757-114.84,56.6-258.89-31.19-355.58-87.34s-137.24-65.5-121.64-96.69S2794.83,2226.92,2794.83,2226.92Z"/><path class="cls-17" d="M2661.13,2302.88s52.6-38.53,52.6-107.15l78,31.19s18.72,118.53-53,152.84Z"/><path class="cls-23" d="M826.66,2582.5l115.41,218.34,792.26-265.12s371.17,293.19,539.61,358.7,308.56,5.21,364.93-40.55-59.26-333.75-209-418S1849.73,2202,1693.78,2186.37,826.66,2582.5,826.66,2582.5Z"/><path class="cls-8" d="M1378.08,1596.86h431.77a71.07,71.07,0,0,1,71.07,71.07v125.43l99.82,43.67H1378.08A71.07,71.07,0,0,1,1307,1766v-98A71.07,71.07,0,0,1,1378.08,1596.86Z"/><circle class="cls-10" cx="1436.18" cy="1719.11" r="50.6" transform="translate(-566.91 2721.9) rotate(-76.72)"/><circle class="cls-10" cx="1589.72" cy="1711.92" r="50.6" transform="translate(-744.89 1625.51) rotate(-45)"/><circle class="cls-10" cx="1751.25" cy="1711.49" r="50.6" transform="translate(-697.28 1739.6) rotate(-45)"/><circle class="cls-26" cx="3864.57" cy="820.43" r="165.04" transform="translate(551.77 2972.96) rotate(-45)"/><circle class="cls-10" cx="3849.24" cy="793.59" r="153.55" transform="translate(566.27 2954.26) rotate(-45)"/><path class="cls-16" d="M3964.33,757.7h0c-15.74-29.81-56.07-39.41-90.08-21.45l-6.14,3-9-17a61,61,0,0,0-82.36-25.43h0a61,61,0,0,0-25.43,82.36l29.51,55.88,35.54,69.76,114.87-60.67C3965.28,826.24,3980.08,787.51,3964.33,757.7Z"/><g class="cls-2"><circle class="cls-3" cx="1315.76" cy="783.27" r="165.04" transform="translate(-168.48 1159.8) rotate(-45)"/></g><circle class="cls-10" cx="1316.95" cy="746.18" r="153.55"/><path class="cls-16" d="M1397.58,656.56h0c-28.76-17.59-68.34-5.26-88.41,27.55l-3.73,5.75-16.38-10a61,61,0,0,0-83.8,20.19h0a60.94,60.94,0,0,0,20.19,83.8l53.91,33,66.18,41.84,67.78-110.83C1433.39,715,1426.34,674.15,1397.58,656.56Z"/><polygon class="cls-8" points="2177.24 480.21 2258.34 567.54 2211.55 689.19 2716.85 386.63 2177.24 480.21"/><circle class="cls-8" cx="745.33" cy="2189.73" r="211.87" transform="translate(-1330.07 1168.38) rotate(-45)"/><circle class="cls-27" cx="780.11" cy="2152.08" r="211.87" transform="translate(-1293.26 1181.95) rotate(-45)"/><polygon class="cls-28" points="869.77 2032.74 780.42 2032.74 779.79 2032.74 690.45 2032.74 690.45 2271.41 780.11 2181.75 869.77 2271.41 869.77 2032.74"/><polygon class="cls-11" points="2080.55 452.14 2716.85 386.63 2367.51 711.02 2258.34 567.54 2523.47 470.85 2227.15 527 2080.55 452.14"/></svg>