<svg id="Layer_1" data-name="Layer 1" xmlns="http://www.w3.org/2000/svg" viewBox="0 0 236.17 236.17"><defs><style>.cls-1{fill:#ff89ca;}.cls-2{fill:#fa4aad;}.cls-3{fill:#423e4f;}</style></defs><circle class="cls-1" cx="118.08" cy="118.08" r="118.08"/><path class="cls-2" d="M138.69,215.56A118.08,118.08,0,0,1,45.52,24.92,118.09,118.09,0,1,0,211.25,190.64,117.56,117.56,0,0,1,138.69,215.56Z"/><path class="cls-3" d="M118.08,105a29.58,29.58,0,0,0-22.3,10.16,7.73,7.73,0,0,0,11.59,10.22l.06-.07a14.1,14.1,0,0,1,21.3,0,7.73,7.73,0,0,0,13.55-5.08,7.67,7.67,0,0,0-1.9-5.07A29.57,29.57,0,0,0,118.08,105ZM69.42,89.33,45.34,82.88a7.72,7.72,0,0,0-4,14.92l6.86,1.84a7.74,7.74,0,0,0-.33,2.24v10.37a7.73,7.73,0,0,0,15.45,0v-8.56l2.1.57a7.73,7.73,0,0,0,4-14.93Zm130.86-1a7.72,7.72,0,0,0-9.46-5.46l-24.08,6.45a7.73,7.73,0,0,0,4,14.93l2.1-.57v8.56a7.73,7.73,0,0,0,15.46,0V101.87a7.53,7.53,0,0,0-.34-2.23l6.86-1.84a7.73,7.73,0,0,0,5.47-9.46Z"/></svg>