<svg id="Layer_1" data-name="Layer 1" xmlns="http://www.w3.org/2000/svg" viewBox="0 0 236.17 236.17"><defs><style>.cls-1{fill:#83deff;}.cls-2{fill:#423e4f;}.cls-3{fill:#00b4fd;}</style></defs><circle class="cls-1" cx="118.08" cy="118.08" r="118.08"/><path class="cls-2" d="M186.16,128.74a7.73,7.73,0,0,0,7.73-7.72h0V109a7.73,7.73,0,0,0-15.46,0v12a7.73,7.73,0,0,0,7.73,7.72ZM68.47,89.38a14.34,14.34,0,0,1-14.49,0A7.73,7.73,0,0,0,46,102.63a29.39,29.39,0,0,0,8.1,3.33A7.61,7.61,0,0,0,53.5,109v12A7.73,7.73,0,0,0,69,121V109a7.61,7.61,0,0,0-.63-3.05,29.33,29.33,0,0,0,8.11-3.33A7.73,7.73,0,0,0,68.5,89.36ZM143.09,121c-12.15-5-27.92-5-35.61-5h-.26a7.73,7.73,0,0,0,0,15.46h.12c6.11,0,20.49,0,29.9,3.84a7.73,7.73,0,0,0,5.85-14.3Z"/><path class="cls-3" d="M138.69,215.56A118.08,118.08,0,0,1,45.52,24.92,118.09,118.09,0,1,0,211.25,190.64a117.56,117.56,0,0,1-72.56,24.92Z"/></svg>