<svg id="Layer_1" data-name="Layer 1" xmlns="http://www.w3.org/2000/svg" viewBox="0 0 236.17 236.17"><defs><style>.cls-1{fill:#f8ea69;}.cls-2{fill:#423e4f;}.cls-3{fill:#f8ad3e;}</style></defs><circle class="cls-1" cx="118.08" cy="118.08" r="118.08"/><path class="cls-2" d="M52.24,119.51A7.72,7.72,0,0,0,60,111.79h0V101.07a7.73,7.73,0,1,0-15.45,0v10.72a7.72,7.72,0,0,0,7.73,7.72Zm79.12-13.61a7.72,7.72,0,0,0-10.9.75h0a12.77,12.77,0,0,1-19.25,0A7.73,7.73,0,1,0,89.56,116.8a28.2,28.2,0,0,0,42.55,0,7.72,7.72,0,0,0-.75-10.9Zm35.45,5.59a4.7,4.7,0,0,1,9.4,0,7.73,7.73,0,1,0,15.45,0h0a20.15,20.15,0,0,0-40.3,0,7.73,7.73,0,1,0,15.45,0Z"/><path class="cls-3" d="M138.69,215.56A118.08,118.08,0,0,1,45.52,24.92,118.09,118.09,0,1,0,211.25,190.64a117.56,117.56,0,0,1-72.56,24.92Z"/></svg>