<?xml version="1.0" encoding="utf-8"?>
<!-- Generator: Adobe Illustrator 26.0.3, SVG Export Plug-In . SVG Version: 6.00 Build 0)  -->
<svg version="1.1" id="Layer_1" xmlns="http://www.w3.org/2000/svg" xmlns:xlink="http://www.w3.org/1999/xlink" x="0px" y="0px"
	 viewBox="0 0 236.2 236.2" style="enable-background:new 0 0 236.2 236.2;" xml:space="preserve">
<style type="text/css">
	.st0{fill:#D1D5DB;}
	.st1{fill:#423E4F;}
	.st2{fill:#9CA3AF;}
</style>
<circle class="st0" cx="118.1" cy="118.1" r="118.1"/>
<path class="st1" d="M63.8,114c4.3,0,7.7-3.4,7.8-7.7c0,0,0,0,0,0l0,0V95.6c0.2-4.3-3.2-7.8-7.4-8c-4.3-0.2-7.8,3.2-8,7.4
	c0,0.2,0,0.4,0,0.6v10.7C56.1,110.5,59.6,114,63.8,114C63.8,114,63.8,114,63.8,114L63.8,114z M150.5,117c-1.8-2.6-5.7-1.7-15.5-1.8
	c-4.5,0-9-0.3-13.5-0.5c-3.8-0.1-7.5-0.1-11.3-0.3c-9.1-0.4-12.7-1.1-14.2,1.1c-0.8,1.1-0.8,2.9-0.9,4.7c0,0.5-0.1,2.9,0.5,4.3
	c1.3,3.1,7.3,3.1,16.9,3.5c10.3,0.3,15.5,0.5,20.1,0.6c11,0.3,16.4,0.6,18.1-2.4c0.5-0.9,1-2.8,0.9-4.8
	C151.7,121,151.6,118.5,150.5,117z M187.4,124.8c4.3,0,7.7-3.4,7.8-7.7c0,0,0,0,0,0l0,0v-10.7c0.2-4.3-3.2-7.8-7.4-8
	c-4.3-0.2-7.8,3.2-8,7.4c0,0.2,0,0.4,0,0.6v10.7C179.7,121.3,183.2,124.8,187.4,124.8C187.4,124.8,187.4,124.8,187.4,124.8
	L187.4,124.8z"/>
<path class="st2" d="M138.7,215.6c-65.2,0-118.1-52.9-118.1-118.1c0-26.3,8.8-51.8,24.9-72.6C-5.9,65-15.2,139.2,24.9,190.6
	s114.3,60.7,165.7,20.6c7.7-6,14.6-12.9,20.6-20.6C190.5,206.8,165,215.6,138.7,215.6z"/>
</svg>
