<svg id="Layer_1" data-name="Layer 1" xmlns="http://www.w3.org/2000/svg" viewBox="0 0 236.17 236.17"><defs><style>.cls-1{fill:#6ee7b7;}.cls-2{fill:#10b981;}.cls-3{fill:#423e4f;}</style></defs><circle class="cls-1" cx="118.08" cy="118.08" r="118.08"/><path class="cls-2" d="M138.69,215.56A118.08,118.08,0,0,1,45.52,24.92,118.09,118.09,0,1,0,211.25,190.64,117.56,117.56,0,0,1,138.69,215.56Z"/><path class="cls-3" d="M118.08,148.67c14.24,0,26.92,9.66,34.9-6.83,8.09-16.72-10-41.54-34.9-41.54s-43,24.82-34.89,41.54C91.17,158.33,103.85,148.67,118.08,148.67Z"/><path class="cls-3" d="M54.86,91.57A26.33,26.33,0,0,0,35,100.62a7.73,7.73,0,1,0,11.65,10.15,10.88,10.88,0,0,1,16.44,0,7.73,7.73,0,0,0,11.65-10.15,26.33,26.33,0,0,0-19.87-9.05Zm126.45,0a26.33,26.33,0,0,0-19.87,9.05,7.73,7.73,0,1,0,11.65,10.15,10.88,10.88,0,0,1,16.44,0,7.73,7.73,0,0,0,11.65-10.15,26.35,26.35,0,0,0-19.87-9.05Z"/></svg>