<svg xmlns="http://www.w3.org/2000/svg" version="1.1" xmlns:xlink="http://www.w3.org/1999/xlink" xmlns:svgjs="http://svgjs.com/svgjs" width="512" height="512" x="0" y="0" viewBox="0 0 512 512" style="enable-background:new 0 0 512 512" xml:space="preserve" class=""><g><circle cx="256" cy="256" r="256" fill="#6bbef6" data-original="#6bbef6" class=""></circle><path fill="#528ecb" d="M327.824 501.781C305.037 508.436 280.93 512 256 512 114.618 512 0 397.382 0 256 0 114.608 114.618 0 256 0c24.93 0 49.037 3.564 71.824 10.219C221.406 41.259 143.648 139.548 143.648 256s77.758 214.741 184.176 245.781z" data-original="#528ecb" class=""></path><path fill="#86f1a7" d="M181.219 227.515c-12.084 72.494-76.532 103.368-51.025 161.1 25.518 57.721 25.847 74.853-4.523 87.771h-.01a257.35 257.35 0 0 1-67.848-58.329c13.537-51.076-47.964-91.665-56.124-132.47 0-.021-.01-.041-.01-.062A261.147 261.147 0 0 1 0 256c0-61.213 21.479-117.399 57.319-161.45 63.48 17.513 135.974 60.472 123.9 132.965z" data-original="#86f1a7" class=""></path><path fill="#66b49d" d="M125.661 476.387h.01c30.37-12.918 30.04-30.05 4.523-87.771-14.567-32.97.206-57.183 17.808-85.388a257.394 257.394 0 0 1-4.354-47.227c0-34.979 7.024-68.315 19.724-98.686-24.004-31.32-66.752-51.921-106.054-62.764C21.479 138.601 0 194.787 0 256c0 9.982.577 19.841 1.679 29.525 0 .021.01.041.01.062 8.159 40.805 69.661 81.395 56.124 132.471a257.382 257.382 0 0 0 67.848 58.329z" data-original="#66b49d" class=""></path><path fill="#e4f6ff" d="m155.702 491.592-.002.004C186.503 504.727 220.401 512 256 512s69.496-7.273 100.299-20.403v-.005c-30.802-13.135-64.706-20.398-100.299-20.398-35.593.001-69.496 7.263-100.298 20.398z" data-original="#e4f6ff"></path><path fill="#b9e4ef" d="M327.804 501.77c-23.879-6.967-46.308-17.33-66.746-30.515a257.593 257.593 0 0 0-5.057-.064c-35.593 0-69.496 7.263-100.298 20.398l-.002.004c30.803 13.13 64.701 20.404 100.3 20.404 24.931-.001 49.021-3.58 71.803-10.227z" data-original="#b9e4ef"></path><path fill="#86f1a7" d="M512 256c0 67.364-26.033 128.649-68.559 174.368-24.869-19.563-45.812-62.12-45.812-100.824 0-52.354 64.448-44.298 64.448-81.889s-88.606-10.745-88.606-80.55c0-45.153 43.546-69.28 74.307-80.694C487.739 131.575 512 190.954 512 256z" data-original="#86f1a7" class=""></path><path fill="#e4f6ff" d="M207.629 38.225c18.419 4.605 21.48 79.207-8.055 79.207s-59.741-12.082-59.741-30.206 35.576-57.056 67.796-49.001z" data-original="#e4f6ff"></path><path fill="#b9e4ef" d="M207.629 38.225c-32.22-8.055-67.796 30.877-67.796 49.001 0 15.125 21.039 26.035 45.167 29.234a257.245 257.245 0 0 1 36.53-44.316c-.769-16.621-5.877-31.913-13.901-33.919z" data-original="#b9e4ef"></path><path fill="#f4dd45" d="M499.109 93.885c0 29.237-16.349 54.651-40.404 67.6-10.817 5.831-23.189 9.138-36.335 9.138-13.145 0-25.518-3.307-36.335-9.138-24.055-12.949-40.404-38.364-40.404-67.6 0-42.382 34.357-76.738 76.738-76.738s76.74 34.356 76.74 76.738z" data-original="#f4dd45"></path><path fill="#eab14d" d="M402.509 161.485a76.118 76.118 0 0 0 28.103 8.695c-2.709.299-5.46.443-8.241.443-13.145 0-25.517-3.307-36.334-9.138-24.055-12.949-40.404-38.364-40.404-67.6 0-42.382 34.357-76.738 76.738-76.738 2.782 0 5.532.144 8.241.433-38.508 4.11-68.507 36.705-68.507 76.306 0 29.235 16.349 54.65 40.404 67.599z" data-original="#eab14d"></path><path fill="#da4a54" d="M458.705 161.485c-10.817 5.831-23.189 9.138-36.335 9.138-13.145 0-25.518-3.307-36.335-9.138 2.895-17.451 18.059-30.761 36.335-30.761s33.44 13.31 36.335 30.761z" data-original="#da4a54"></path><circle cx="422.371" cy="93.884" r="36.842" fill="#f1b986" data-original="#f1b986"></circle><path fill="#be694f" d="M422.371 57.042c-9.733 0-18.578 3.781-25.165 9.945.001 0 22.112 26.896 62.007 26.896 0-20.346-16.494-36.841-36.842-36.841z" data-original="#be694f"></path><path fill="#da4a54" d="M432.453 359.34c0 29.237-16.349 54.651-40.404 67.6-10.817 5.831-23.189 9.138-36.335 9.138s-25.518-3.307-36.335-9.138c-24.055-12.949-40.404-38.364-40.404-67.6 0-42.382 34.357-76.738 76.738-76.738s76.74 34.356 76.74 76.738z" data-original="#da4a54"></path><path fill="#c32430" d="M335.853 426.94a76.118 76.118 0 0 0 28.103 8.695c-2.709.299-5.46.443-8.241.443-13.145 0-25.517-3.307-36.334-9.138-24.055-12.949-40.404-38.364-40.404-67.6 0-42.382 34.357-76.738 76.738-76.738 2.782 0 5.532.144 8.241.433-38.508 4.11-68.507 36.705-68.507 76.306 0 29.235 16.349 54.65 40.404 67.599z" data-original="#c32430"></path><path fill="#ffffff" d="M392.049 426.94c-10.817 5.831-23.189 9.138-36.335 9.138s-25.518-3.307-36.335-9.138c2.895-17.451 18.059-30.761 36.335-30.761s33.44 13.31 36.335 30.761z" data-original="#ffffff"></path><circle cx="355.715" cy="359.339" r="36.842" fill="#f1d0a5" data-original="#f1d0a5"></circle><path fill="#404a4a" d="M355.715 322.497c-9.733 0-18.578 3.781-25.165 9.945 0 0 22.112 26.896 62.007 26.896 0-20.346-16.494-36.841-36.842-36.841z" data-original="#404a4a"></path><path fill="#be694f" d="M153.476 114.439c0 29.237-16.349 54.651-40.404 67.6-10.817 5.831-23.189 9.138-36.335 9.138s-25.518-3.307-36.335-9.138C16.349 169.09 0 143.676 0 114.439c0-42.382 34.357-76.738 76.738-76.738s76.738 34.357 76.738 76.738z" data-original="#be694f"></path><path fill="#934d36" d="M56.876 182.04a76.118 76.118 0 0 0 28.103 8.695c-2.709.299-5.46.443-8.241.443-13.145 0-25.517-3.307-36.334-9.138C16.349 169.09 0 143.676 0 114.439c0-42.382 34.357-76.738 76.738-76.738 2.782 0 5.532.144 8.241.433-38.508 4.11-68.507 36.705-68.507 76.306.001 29.236 16.35 54.65 40.404 67.6z" data-original="#934d36"></path><path fill="#6bbef6" d="M113.073 182.04c-10.817 5.831-23.189 9.138-36.335 9.138s-25.518-3.307-36.335-9.138c2.895-17.451 18.059-30.761 36.335-30.761s33.44 13.309 36.335 30.761z" data-original="#6bbef6" class=""></path><circle cx="76.739" cy="114.438" r="36.842" fill="#f1d0a5" data-original="#f1d0a5"></circle><path fill="#eab14d" d="M76.739 77.597c-9.733 0-18.578 3.781-25.165 9.945 0 0 22.112 26.896 62.007 26.896 0-20.347-16.495-36.841-36.842-36.841z" data-original="#eab14d"></path></g></svg>