<svg xmlns="http://www.w3.org/2000/svg" version="1.1" xmlns:xlink="http://www.w3.org/1999/xlink" xmlns:svgjs="http://svgjs.com/svgjs" width="512" height="512" x="0" y="0" viewBox="0 0 512 512" style="enable-background:new 0 0 512 512" xml:space="preserve" class=""><g><path fill="#eeecff" d="M211.498 52.897h89.005v87.192h-89.005z" data-original="#eeecff" class=""></path><path fill="#00c4fc" d="m89.959 129.805-19.557 19.557c-9.238 9.238-9.238 24.215 0 33.453l35.127 35.127 53.01-53.01-35.127-35.127c-9.238-9.237-24.215-9.237-33.453 0z" data-original="#00c4fc"></path><path fill="#2e67cf" d="M251.798 118.86C106.107 155.353 169.198 512 409.68 438.004c26.853-33.616 42.917-76.229 42.917-122.6 0-108.577-88.019-196.596-196.596-196.596-1.406-.001-2.805.023-4.203.052z" data-original="#2e67cf" class=""></path><path fill="#0046af" d="M409.68 438.004c-243.913 5.228-236.968-239.15-157.881-319.143-106.636 2.237-192.395 89.371-192.395 196.543C59.404 423.981 147.423 512 256 512c62.207 0 117.656-28.9 153.68-73.996z" data-original="#0046af"></path><path fill="#eeecff" d="M256 175.419c-14.256 0-28.012 2.137-40.972 6.098-68.837 88.992-40.562 252.872 120.507 249.085 36.52-25.262 60.45-67.432 60.45-115.199 0-77.311-62.673-139.984-139.985-139.984z" data-original="#eeecff" class=""></path><path fill="#d3d3ff" d="M215.028 181.517c-57.32 17.52-99.013 70.831-99.013 133.887 0 77.312 62.673 139.985 139.985 139.985 29.545 0 56.947-9.161 79.535-24.787-130.314-32.077-150.91-160.45-120.507-249.085z" data-original="#d3d3ff"></path><path fill="#ff6e80" d="M358.084 25.473c-5.2-18.548-24.451-29.368-42.999-24.169C303.84 4.457 282.412 7.825 256 7.825c-1.92 0-3.811-.02-5.676-.054-33.898 11.938-29.323 59.972 23.737 69.388 30.934-1.467 51.598-6.373 59.854-8.688 18.547-5.198 29.369-24.45 24.169-42.998z" data-original="#ff6e80" class=""></path><path fill="#f8475e" d="M250.324 7.772c-23.794-.437-42.981-3.544-53.409-6.467-18.546-5.202-37.799 5.621-42.999 24.169s5.621 37.799 24.169 42.999c9.772 2.74 36.924 9.111 77.915 9.111 6.358 0 12.382-.154 18.061-.423-34.909-10.459-41.016-51.646-23.737-69.389z" data-original="#f8475e"></path><path fill="#59d5ff" d="M276.413 231.016C266.022 228.511 256 236.287 256 246.975v68.428h-86.802s54.428 76.536 101.049 85.615c40.328-6.734 71.543-41.603 72.53-83.522.985-41.827-27.627-77.144-66.364-86.48z" data-original="#59d5ff" class=""></path><path fill="#00c4fc" d="M270.247 401.019c-30.421-22.258-49.369-52.608-59.195-85.615h-41.854c0 48.635 39.999 87.928 88.895 86.777a86.166 86.166 0 0 0 12.154-1.162z" data-original="#00c4fc"></path><path fill="#ff6e80" d="M256 297.964h-49.26c-7.53 10.924-5.649 25.739 10.478 34.878H256c9.631.001 17.44-7.808 17.439-17.439 0-9.631-7.807-17.439-17.439-17.439z" data-original="#ff6e80" class=""></path><path fill="#f8475e" d="M172.71 332.843h44.508c-4.648-11.255-8.105-22.959-10.478-34.878h-34.03c-9.631-.001-17.44 7.808-17.439 17.439 0 9.631 7.807 17.439 17.439 17.439z" data-original="#f8475e"></path></g></svg>