<svg xmlns="http://www.w3.org/2000/svg" version="1.1" xmlns:xlink="http://www.w3.org/1999/xlink" xmlns:svgjs="http://svgjs.com/svgjs" width="512" height="512" x="0" y="0" viewBox="0 0 497 497" style="enable-background:new 0 0 512 512" xml:space="preserve" class=""><g><circle cx="120.944" cy="114.624" r="114.624" fill="#f8ea69" data-original="#f8ea69" class=""></circle><circle cx="376.056" cy="382.376" r="114.624" fill="#ff89ca" data-original="#ff89ca"></circle><path fill="#fa4aad" d="M396.056 477c-63.305 0-114.624-51.319-114.624-114.624 0-26.555 9.034-50.999 24.191-70.433-26.894 20.976-44.191 53.683-44.191 90.433C261.431 445.681 312.75 497 376.056 497c36.75 0 69.457-17.297 90.433-44.191C447.055 467.966 422.611 477 396.056 477z" data-original="#fa4aad" class=""></path><circle cx="120.944" cy="382.376" r="114.624" fill="#6ee7b7" data-original="#bd9cde" class=""></circle><path fill="#10b981" d="M140.944 477C77.639 477 26.32 425.681 26.32 362.376c0-26.555 9.034-50.999 24.191-70.433C23.617 312.919 6.32 345.626 6.32 382.376 6.32 445.681 57.639 497 120.944 497c36.75 0 69.457-17.297 90.433-44.191C191.944 467.966 167.5 477 140.944 477z" data-original="#996acc" class=""></path><path fill="#423e4f" d="M120.944 412.064c13.821 0 26.129 9.381 33.87-6.623 7.853-16.234-9.735-40.324-33.87-40.324s-41.723 24.089-33.87 40.324c7.741 16.004 20.049 6.623 33.87 6.623z" data-original="#423e4f" class=""></path><circle cx="376.056" cy="114.624" r="114.624" fill="#83deff" data-original="#83deff"></circle><g fill="#423e4f"><path d="M57.025 116.013a7.5 7.5 0 0 0 7.5-7.5V98.106a7.5 7.5 0 0 0-15 0v10.407a7.5 7.5 0 0 0 7.5 7.5zM133.835 102.795a7.5 7.5 0 0 0-10.582.727c-2.359 2.707-5.764 4.26-9.343 4.26s-6.984-1.553-9.343-4.26a7.5 7.5 0 0 0-11.309 9.855c5.208 5.977 12.736 9.405 20.652 9.405s15.443-3.428 20.651-9.405a7.5 7.5 0 0 0-.726-10.582zM168.244 108.223c0-2.514 2.045-4.56 4.559-4.56s4.56 2.045 4.56 4.56a7.5 7.5 0 0 0 15 0c0-10.785-8.774-19.56-19.56-19.56s-19.559 8.774-19.559 19.56a7.5 7.5 0 0 0 15 0zM376.056 369.658a28.71 28.71 0 0 0-21.646 9.857 7.5 7.5 0 1 0 11.308 9.855c2.61-2.995 6.378-4.713 10.338-4.713s7.728 1.718 10.337 4.712a7.48 7.48 0 0 0 5.657 2.573 7.5 7.5 0 0 0 5.651-12.428 28.709 28.709 0 0 0-21.645-9.856zM328.822 354.464l-23.375-6.263a7.506 7.506 0 0 0-9.186 5.304 7.501 7.501 0 0 0 5.304 9.186l6.654 1.783a7.508 7.508 0 0 0-.322 2.169v10.069a7.5 7.5 0 0 0 15 0v-8.305l2.042.547a7.504 7.504 0 0 0 9.186-5.304 7.498 7.498 0 0 0-5.303-9.186zM455.849 353.504a7.505 7.505 0 0 0-9.186-5.304l-23.375 6.263a7.502 7.502 0 0 0 3.882 14.49l2.042-.547v8.305a7.5 7.5 0 0 0 15 0v-10.069c0-.755-.114-1.482-.322-2.169l6.654-1.783a7.5 7.5 0 0 0 5.305-9.186zM59.572 356.639a25.582 25.582 0 0 0-19.288 8.783 7.5 7.5 0 0 0 11.308 9.856c2.016-2.313 4.924-3.639 7.98-3.639s5.964 1.326 7.979 3.639a7.48 7.48 0 0 0 5.657 2.572 7.5 7.5 0 0 0 5.652-12.428 25.582 25.582 0 0 0-19.288-8.783zM182.317 356.639a25.582 25.582 0 0 0-19.288 8.783 7.5 7.5 0 0 0 11.309 9.855c2.015-2.313 4.923-3.639 7.979-3.639s5.964 1.326 7.979 3.639a7.48 7.48 0 0 0 5.657 2.572 7.5 7.5 0 0 0 5.652-12.428 25.585 25.585 0 0 0-19.288-8.782zM442.138 124.971a7.5 7.5 0 0 0 7.5-7.5v-11.652a7.5 7.5 0 0 0-15 0v11.652a7.5 7.5 0 0 0 7.5 7.5zM327.896 86.766c-4.23 2.541-9.831 2.541-14.062 0a7.5 7.5 0 0 0-7.723 12.859 28.574 28.574 0 0 0 7.865 3.229 7.473 7.473 0 0 0-.611 2.965v11.652a7.5 7.5 0 0 0 15 0v-11.652a7.473 7.473 0 0 0-.611-2.965 28.544 28.544 0 0 0 7.865-3.229 7.5 7.5 0 1 0-7.723-12.859zM400.326 117.464c-11.788-4.818-27.094-4.848-34.558-4.848h-.253a7.5 7.5 0 0 0 0 15h.116c5.932-.032 19.889 0 29.02 3.732.929.38 1.89.56 2.835.56a7.502 7.502 0 0 0 2.84-14.444z" fill="#423e4f" data-original="#423e4f" class=""></path></g><path fill="#f8ad3e" d="M140.944 209.249c-63.305 0-114.624-51.319-114.624-114.624 0-26.556 9.034-50.999 24.191-70.433C23.617 45.168 6.32 77.875 6.32 114.624c0 63.305 51.319 114.624 114.624 114.624 36.75 0 69.457-17.297 90.433-44.191-19.433 15.158-43.877 24.192-70.433 24.192z" data-original="#f8ad3e" class=""></path><path fill="#00b4fd" d="M396.056 209.249c-63.305 0-114.624-51.319-114.624-114.624 0-26.556 9.034-50.999 24.191-70.433-26.894 20.976-44.191 53.683-44.191 90.433 0 63.305 51.319 114.624 114.624 114.624 36.75 0 69.457-17.297 90.433-44.191-19.434 15.157-43.878 24.191-70.433 24.191z" data-original="#00b4fd" class=""></path></g></svg>