<svg xmlns="http://www.w3.org/2000/svg" version="1.1" xmlns:xlink="http://www.w3.org/1999/xlink" xmlns:svgjs="http://svgjs.com/svgjs" width="41.03" height="39.97"><svg id="SvgjsSvg1000" data-name="Layer 1" xmlns="http://www.w3.org/2000/svg" viewBox="0 0 41.03 39.97"><defs><style>.cls-1{fill:#10b981;}.cls-2{fill:#0ea5e9;}.cls-3{fill:#059669;}</style></defs><circle class="cls-1" cx="16" cy="23.97" r="16"></circle><circle class="cls-2" cx="27.58" cy="13.45" r="13.45"></circle><polygon class="cls-1" points="0.07 39.97 15.91 39.97 6.92 31.52 0.07 39.97"></polygon><path class="cls-3" d="M16,8c-.24,0-.47,0-.71,0A13.45,13.45,0,0,0,27.58,26.9a13.57,13.57,0,0,0,4.25-.69A16.64,16.64,0,0,0,32,24,16,16,0,0,0,16,8Z"></path><polygon class="cls-2" points="40.98 0 27.66 0 35.22 7.1 40.98 0"></polygon></svg><style>@media (prefers-color-scheme: light) { :root { filter: none; } }
</style></svg>